<?xml version="1.0" encoding="UTF-8" standalone="no"?>
<svg
   xmlns:dc="http://purl.org/dc/elements/1.1/"
   xmlns:cc="http://creativecommons.org/ns#"
   xmlns:rdf="http://www.w3.org/1999/02/22-rdf-syntax-ns#"
   xmlns:svg="http://www.w3.org/2000/svg"
   xmlns="http://www.w3.org/2000/svg"
   version="1.1"
   id="svg4399"
   viewBox="0 0 191.60605 238.99248"
   height="67.44899mm"
   width="54.075485mm">
  <defs
     id="defs4401" />
  <metadata
     id="metadata4404">
    <rdf:RDF>
      <cc:Work
         rdf:about="">
        <dc:format>image/svg+xml</dc:format>
        <dc:type
           rdf:resource="http://purl.org/dc/dcmitype/StillImage" />
        <dc:title></dc:title>
      </cc:Work>
    </rdf:RDF>
  </metadata>
  <g
     transform="translate(-18.482689,-207.15168)"
     id="layer1">
    <g
       transform="translate(-385.62552,-425.86091)"
       id="g4274-7-5-4-8-3">
      <rect
         style="color:#000000;clip-rule:nonzero;display:inline;overflow:visible;visibility:visible;opacity:1;isolation:auto;mix-blend-mode:normal;color-interpolation:sRGB;color-interpolation-filters:linearRGB;solid-color:#000000;solid-opacity:1;fill:#000000;fill-opacity:1;fill-rule:nonzero;stroke:none;stroke-width:10;stroke-linecap:square;stroke-linejoin:bevel;stroke-miterlimit:4;stroke-dasharray:none;stroke-dashoffset:0;stroke-opacity:1;color-rendering:auto;image-rendering:auto;shape-rendering:auto;text-rendering:auto;enable-background:accumulate"
         id="rect4230-36-4-8-5-6"
         width="32.857143"
         height="21.428579"
         x="562.85712"
         y="744.50507"
         rx="11.964286" />
      <rect
         style="color:#000000;clip-rule:nonzero;display:inline;overflow:visible;visibility:visible;opacity:1;isolation:auto;mix-blend-mode:normal;color-interpolation:sRGB;color-interpolation-filters:linearRGB;solid-color:#000000;solid-opacity:1;fill:#000000;fill-opacity:1;fill-rule:nonzero;stroke:none;stroke-width:10;stroke-linecap:square;stroke-linejoin:bevel;stroke-miterlimit:4;stroke-dasharray:none;stroke-dashoffset:0;stroke-opacity:1;color-rendering:auto;image-rendering:auto;shape-rendering:auto;text-rendering:auto;enable-background:accumulate"
         id="rect4230-0-1-7-7-0-7"
         width="32.857143"
         height="21.428579"
         x="562.85712"
         y="773.31458"
         rx="11.964286" />
      <rect
         style="color:#000000;clip-rule:nonzero;display:inline;overflow:visible;visibility:visible;opacity:1;isolation:auto;mix-blend-mode:normal;color-interpolation:sRGB;color-interpolation-filters:linearRGB;solid-color:#000000;solid-opacity:1;fill:#000000;fill-opacity:1;fill-rule:nonzero;stroke:none;stroke-width:10;stroke-linecap:square;stroke-linejoin:bevel;stroke-miterlimit:4;stroke-dasharray:none;stroke-dashoffset:0;stroke-opacity:1;color-rendering:auto;image-rendering:auto;shape-rendering:auto;text-rendering:auto;enable-background:accumulate"
         id="rect4230-9-29-4-1-9-5"
         width="32.857143"
         height="21.428579"
         x="562.85712"
         y="802.12408"
         rx="11.964286" />
      <rect
         style="color:#000000;clip-rule:nonzero;display:inline;overflow:visible;visibility:visible;opacity:1;isolation:auto;mix-blend-mode:normal;color-interpolation:sRGB;color-interpolation-filters:linearRGB;solid-color:#000000;solid-opacity:1;fill:#000000;fill-opacity:1;fill-rule:nonzero;stroke:none;stroke-width:10;stroke-linecap:square;stroke-linejoin:bevel;stroke-miterlimit:4;stroke-dasharray:none;stroke-dashoffset:0;stroke-opacity:1;color-rendering:auto;image-rendering:auto;shape-rendering:auto;text-rendering:auto;enable-background:accumulate"
         id="rect4230-3-3-4-7-6-3"
         width="32.857143"
         height="21.428579"
         x="562.85712"
         y="830.93359"
         rx="11.964286" />
    </g>
    <g
       id="g4274-8-1-3-2-3-5"
       transform="translate(-543.8398,-425.86091)">
      <rect
         style="color:#000000;clip-rule:nonzero;display:inline;overflow:visible;visibility:visible;opacity:1;isolation:auto;mix-blend-mode:normal;color-interpolation:sRGB;color-interpolation-filters:linearRGB;solid-color:#000000;solid-opacity:1;fill:#000000;fill-opacity:1;fill-rule:nonzero;stroke:none;stroke-width:10;stroke-linecap:square;stroke-linejoin:bevel;stroke-miterlimit:4;stroke-dasharray:none;stroke-dashoffset:0;stroke-opacity:1;color-rendering:auto;image-rendering:auto;shape-rendering:auto;text-rendering:auto;enable-background:accumulate"
         id="rect4230-7-9-0-7-8-6"
         width="32.857143"
         height="21.428579"
         x="562.85712"
         y="744.50507"
         rx="11.964286" />
      <rect
         style="color:#000000;clip-rule:nonzero;display:inline;overflow:visible;visibility:visible;opacity:1;isolation:auto;mix-blend-mode:normal;color-interpolation:sRGB;color-interpolation-filters:linearRGB;solid-color:#000000;solid-opacity:1;fill:#000000;fill-opacity:1;fill-rule:nonzero;stroke:none;stroke-width:10;stroke-linecap:square;stroke-linejoin:bevel;stroke-miterlimit:4;stroke-dasharray:none;stroke-dashoffset:0;stroke-opacity:1;color-rendering:auto;image-rendering:auto;shape-rendering:auto;text-rendering:auto;enable-background:accumulate"
         id="rect4230-0-9-4-7-2-5-2"
         width="32.857143"
         height="21.428579"
         x="562.85712"
         y="773.31458"
         rx="11.964286" />
      <rect
         style="color:#000000;clip-rule:nonzero;display:inline;overflow:visible;visibility:visible;opacity:1;isolation:auto;mix-blend-mode:normal;color-interpolation:sRGB;color-interpolation-filters:linearRGB;solid-color:#000000;solid-opacity:1;fill:#000000;fill-opacity:1;fill-rule:nonzero;stroke:none;stroke-width:10;stroke-linecap:square;stroke-linejoin:bevel;stroke-miterlimit:4;stroke-dasharray:none;stroke-dashoffset:0;stroke-opacity:1;color-rendering:auto;image-rendering:auto;shape-rendering:auto;text-rendering:auto;enable-background:accumulate"
         id="rect4230-9-2-7-8-2-6-9"
         width="32.857143"
         height="21.428579"
         x="562.85712"
         y="802.12408"
         rx="11.964286" />
      <rect
         style="color:#000000;clip-rule:nonzero;display:inline;overflow:visible;visibility:visible;opacity:1;isolation:auto;mix-blend-mode:normal;color-interpolation:sRGB;color-interpolation-filters:linearRGB;solid-color:#000000;solid-opacity:1;fill:#000000;fill-opacity:1;fill-rule:nonzero;stroke:none;stroke-width:10;stroke-linecap:square;stroke-linejoin:bevel;stroke-miterlimit:4;stroke-dasharray:none;stroke-dashoffset:0;stroke-opacity:1;color-rendering:auto;image-rendering:auto;shape-rendering:auto;text-rendering:auto;enable-background:accumulate"
         id="rect4230-3-0-8-6-6-1-1"
         width="32.857143"
         height="21.428579"
         x="562.85712"
         y="830.93359"
         rx="11.964286" />
    </g>
    <path
       id="path4224-2-3-4-8-1-1-2"
       d="m 104.95005,272.99152 c 0,0 0.45948,14.10939 1.83793,17.98256 1.37842,3.87317 7.35165,3.04321 5.51375,5.80975 -1.83793,2.76654 -10.10855,7.74634 -16.541265,10.23623 -6.4327,2.4899 -5.58388,5.89347 -4.66493,9.48999 0.91898,3.59652 10.385625,7.34341 16.358855,9.00335 5.97322,1.65993 17.13752,3.61494 17.13752,3.61494 0,0 1.46949,2.19754 -4.25808,2.79066 -16.02945,1.65993 -26.691835,8.29964 -29.168135,11.34285 -3.01195,3.70149 -0.95977,7.34687 0.91895,9.95957 2.46272,3.42485 25.448425,10.23174 29.466265,10.76544 3.19001,0.42373 -0.16133,2.83888 -8.43194,5.05213 -8.27063,2.21324 -24.250675,7.42144 -24.710155,11.84794 -0.45948,4.4265 8.2794,9.3443 13.324885,10.7895 19.39149,5.5546 22.28237,6.338 18.25863,9.3986 -3.67343,2.7942 -8.95836,5.7079 -15.08399,7.9099 -4.86402,1.7486 -13.552655,6.8547 -15.054865,9.619 -0.59554,1.096 -0.0615,1.8238 2.28811,1.8284 8.811035,0.017 36.637395,-9.3313 43.086335,-12.5908 3.39564,-1.7162 7.93955,-5.5997 8.1607,-10.3021 0.22129,-4.7024 -8.86798,-9.4596 -19.58939,-12.707 -9.80621,-2.9702 -20.2089,-1.5118 -4.43344,-4.4449 14.13626,-2.6284 22.07753,-9.37877 24.18049,-14.16332 1.02787,-2.33858 -1.60033,-8.57631 -16.54123,-12.72613 -14.74529,-4.09549 -23.09387,-6.52303 -15.16282,-6.36306 8.39337,0.16929 24.7749,-6.06634 28.02822,-10.23623 2.93544,-3.76245 3.825,-7.21341 0.91895,-11.89616 -1.88857,-3.04321 -23.31261,-9.32823 -25.99386,-9.32823 -1.99727,0.14525 -12.1738,-1.4961 1.6415,-4.50452 11.91361,-2.59431 13.78436,-12.72612 13.78436,-14.93935 -1.58072,-3.94295 -3.73179,-3.44816 -7.35166,-10.5129 l -0.16467,-13.51468 z"
       style="fill:#000000;fill-opacity:1;fill-rule:evenodd;stroke:none;stroke-width:1px;stroke-linecap:butt;stroke-linejoin:miter;stroke-opacity:1" />
    <path
       id="rect4219-3-6-5-8-0-5-7"
       d="m 94.146195,232.57992 38.338285,0 0,37.06138 c -12.52695,6.61895 -24.27387,11.35623 -38.338285,0 z"
       style="color:#000000;clip-rule:nonzero;display:inline;overflow:visible;visibility:visible;opacity:1;isolation:auto;mix-blend-mode:normal;color-interpolation:sRGB;color-interpolation-filters:linearRGB;solid-color:#000000;solid-opacity:1;fill:#000000;fill-opacity:1;fill-rule:nonzero;stroke:none;stroke-width:10;stroke-linecap:square;stroke-linejoin:bevel;stroke-miterlimit:4;stroke-dasharray:none;stroke-dashoffset:0;stroke-opacity:1;color-rendering:auto;image-rendering:auto;shape-rendering:auto;text-rendering:auto;enable-background:accumulate" />
    <path
       id="path4272-7-1-0-6-5-9-0"
       d="m 61.654815,213.5281 c 22.5078,0.14924 31.07642,-6.22056 50.900665,-6.37431 19.70406,-0.15282 35.75614,8.03931 51.66604,8.03931 15.90991,0 25.01598,-8.72364 35.62582,-6.28424 9.02573,2.07517 9.26054,9.62054 9.40705,17.2213 0.14334,7.43594 0,19.68149 -0.75761,25.2169 -0.75762,5.53542 -2.84106,10.53266 -10.66974,11.45523 -7.82868,0.92258 -23.05412,-4.92189 -33.45573,-4.69838 -10.73287,0.23064 -42.24257,5.54408 -51.33396,5.54408 -9.09137,0 -40.406105,-6.20963 -51.517785,-6.20963 -11.11167,0 -23.99111,5.28705 -30.30456,5.28705 -6.31346,0 -12.37437,-5.76604 -12.37437,-12.53156 0,-6.76551 -0.8839,-27.60021 0.12626,-31.29049 1.01016,-3.69028 2.60897,-10.4445 9.91213,-10.91707 5.80567,-0.37568 17.10419,5.4379 32.77579,5.54181 z"
       style="fill:#000000;fill-opacity:1;fill-rule:evenodd;stroke:none;stroke-width:1px;stroke-linecap:butt;stroke-linejoin:miter;stroke-opacity:1" />
    <rect
       rx="20"
       y="299.71558"
       x="41.160065"
       height="146.42857"
       width="146.42857"
       id="rect4228-9-2-9-4-8-9"
       style="color:#000000;clip-rule:nonzero;display:inline;overflow:visible;visibility:visible;opacity:1;isolation:auto;mix-blend-mode:normal;color-interpolation:sRGB;color-interpolation-filters:linearRGB;solid-color:#000000;solid-opacity:1;fill:#000000;fill-opacity:1;fill-rule:nonzero;stroke:none;stroke-width:10;stroke-linecap:square;stroke-linejoin:bevel;stroke-miterlimit:4;stroke-dasharray:none;stroke-dashoffset:0;stroke-opacity:1;color-rendering:auto;image-rendering:auto;shape-rendering:auto;text-rendering:auto;enable-background:accumulate" />
    <path
       id="path4224-2-3-8-3"
       d="m 111.92632,302.06938 c -1.0689,2.67225 -3.91731,6.70938 -7.65846,9.1144 -3.74115,2.40504 -3.95993,4.18309 -3.42548,7.65703 0.53446,3.47393 7.21508,7.21508 10.68901,8.81843 3.47393,1.60336 9.08566,5.07729 9.08566,5.07729 0,0 3.74116,1.33611 0.53445,2.93947 -3.20669,1.60335 -17.10242,8.01675 -19.24022,10.95623 -2.137805,2.93949 -1.0689,8.01676 0.53445,9.62011 1.60335,1.60335 17.36965,8.55121 18.97299,10.15457 1.60336,1.60334 -0.53444,3.47391 -5.34449,5.61173 -4.81006,2.1378 -15.49908,6.68062 -15.7663,10.95622 -0.26722,4.27562 4.81516,9.0258 7.74953,10.42179 11.27777,5.36525 13.98716,6.122 11.64702,9.07827 -2.13641,2.69891 -6.23813,5.51328 -9.8007,7.64029 -2.82884,1.68893 -7.882,6.62103 -8.75566,9.29114 -0.34636,1.05858 -0.0358,1.76163 1.33073,1.76609 5.12435,0.0168 21.30769,-9.0133 25.05829,-12.16166 1.97485,-1.65775 4.61751,-5.40884 4.74613,-9.95099 0.1287,-4.54215 -5.93052,-8.60262 -12.20066,-11.54209 -4.89925,-2.29679 -10.75521,-2.6491 -2.1378,-5.87895 8.15718,-3.05736 13.20711,-8.20534 14.43015,-12.82682 0.59779,-2.25886 -0.93073,-8.28399 -9.62011,-12.29237 -8.5756,-3.95589 -13.36126,-4.81004 -8.81844,-6.14617 4.54284,-1.33613 14.16295,-6.94786 16.30075,-9.88733 2.1378,-2.93949 3.20671,-8.55122 0.53445,-11.49069 -2.67225,-2.93948 -14.16293,-9.62012 -14.16293,-9.62012 0.0344,-0.0403 -4.77052,-0.71219 0,-3.74115 5.81368,-3.6913 10.56419,-11.33456 10.62508,-13.44801 z"
       style="fill:#ffffff;fill-opacity:1;fill-rule:evenodd;stroke:none;stroke-width:1px;stroke-linecap:butt;stroke-linejoin:miter;stroke-opacity:1" />
    <g
       id="text4370"
       style="font-style:normal;font-variant:normal;font-weight:bold;font-stretch:normal;font-size:40px;line-height:125%;font-family:Arial;-inkscape-font-specification:'Arial, Bold';text-align:start;letter-spacing:6.87001467px;word-spacing:0px;writing-mode:lr-tb;text-anchor:start;fill:#ffffff;fill-opacity:1;stroke:none;stroke-width:1px;stroke-linecap:butt;stroke-linejoin:miter;stroke-opacity:1">
      <path
         id="path4986"
         style="font-style:normal;font-variant:normal;font-weight:bold;font-stretch:normal;font-size:40px;line-height:125%;font-family:Arial;-inkscape-font-specification:'Arial, Bold';text-align:start;letter-spacing:6.87001467px;writing-mode:lr-tb;text-anchor:start;fill:#ffffff;fill-opacity:1"
         d="m 40.192291,250.66003 0,-28.63281 19.628907,0 0,4.84375 -13.847657,0 0,6.77735 11.953125,0 0,4.84375 -11.953125,0 0,12.16796 -5.78125,0 z" />
      <path
         id="path4988"
         style="font-style:normal;font-variant:normal;font-weight:bold;font-stretch:normal;font-size:40px;line-height:125%;font-family:Arial;-inkscape-font-specification:'Arial, Bold';text-align:start;letter-spacing:6.87001467px;writing-mode:lr-tb;text-anchor:start;fill:#ffffff;fill-opacity:1"
         d="m 71.300587,250.66003 0,-28.63281 5.78125,0 0,28.63281 -5.78125,0 z" />
      <path
         id="path4990"
         style="font-style:normal;font-variant:normal;font-weight:bold;font-stretch:normal;font-size:40px;line-height:125%;font-family:Arial;-inkscape-font-specification:'Arial, Bold';text-align:start;letter-spacing:6.87001467px;writing-mode:lr-tb;text-anchor:start;fill:#ffffff;fill-opacity:1"
         d="m 115.26044,250.66003 -6.28906,0 -2.5,-6.5039 -11.44531,0 -2.363282,6.5039 -6.132812,0 11.152344,-28.63281 6.11328,0 11.46484,28.63281 z m -10.64453,-11.32812 -3.94531,-10.625 -3.867187,10.625 7.812497,0 z" />
      <path
         id="path4992"
         style="font-style:normal;font-variant:normal;font-weight:bold;font-stretch:normal;font-size:40px;line-height:125%;font-family:Arial;-inkscape-font-specification:'Arial, Bold';text-align:start;letter-spacing:6.87001467px;writing-mode:lr-tb;text-anchor:start;fill:#ffffff;fill-opacity:1"
         d="m 125.27499,250.66003 0,-28.63281 5.625,0 11.71875,19.1211 0,-19.1211 5.3711,0 0,28.63281 -5.80078,0 -11.54297,-18.67187 0,18.67187 -5.3711,0 z" />
      <path
         id="path4994"
         style="font-style:normal;font-variant:normal;font-weight:bold;font-stretch:normal;font-size:40px;line-height:125%;font-family:Arial;-inkscape-font-specification:'Arial, Bold';text-align:start;letter-spacing:6.87001467px;writing-mode:lr-tb;text-anchor:start;fill:#ffffff;fill-opacity:1"
         d="m 159.82079,236.51941 q 0,-4.375 1.30859,-7.34375 0.97656,-2.1875 2.65625,-3.92578 1.69922,-1.73828 3.71094,-2.57813 2.67578,-1.13281 6.17187,-1.13281 6.32813,0 10.11719,3.92578 3.80859,3.92578 3.80859,10.91797 0,6.93359 -3.76953,10.85938 -3.76953,3.90625 -10.07812,3.90625 -6.38672,0 -10.15625,-3.88672 -3.76953,-3.90625 -3.76953,-10.74219 z m 5.95703,-0.19531 q 0,4.86328 2.24609,7.38281 2.24609,2.5 5.70313,2.5 3.45703,0 5.66406,-2.48047 2.22656,-2.5 2.22656,-7.48047 0,-4.92187 -2.16797,-7.34375 -2.14844,-2.42187 -5.72265,-2.42187 -3.57422,0 -5.76172,2.46093 -2.1875,2.44141 -2.1875,7.38282 z" />
    </g>
  </g>
</svg>
